<svg xmlns="http://www.w3.org/2000/svg" viewBox="0 0 512 512" role="img" aria-label="BonBox Geschenk Budget Icon">
  <defs>
    <linearGradient id="bg" x1="0" y1="0" x2="1" y2="1">
      <stop offset="0%" stop-color="#f6efdf"/>
      <stop offset="100%" stop-color="#efe2c8"/>
    </linearGradient>
  </defs>
  <rect width="512" height="512" rx="118" fill="url(#bg)"/>
  <rect x="96" y="172" width="320" height="220" rx="34" fill="#123a2f"/>
  <rect x="242" y="172" width="28" height="220" fill="#c6425a"/>
  <rect x="96" y="240" width="320" height="28" fill="#c6425a"/>
  <path d="M226 172c-28 0-52-17-52-40 0-22 17-39 40-39 31 0 52 31 56 62M286 172c28 0 52-17 52-40 0-22-17-39-40-39-31 0-52 31-56 62" fill="none" stroke="#c6425a" stroke-width="18" stroke-linecap="round"/>
  <circle cx="378" cy="348" r="36" fill="#e0b04a"/>
  <path d="M358 348h40M378 328v40" stroke="#6f4f17" stroke-width="10" stroke-linecap="round"/>
</svg>
