<svg xmlns="http://www.w3.org/2000/svg" viewBox="0 0 980 280" role="img" aria-label="BonBox Geschenk Budget Wordmark">
  <rect x="20" y="20" width="240" height="240" rx="54" fill="#f5ead4"/>
  <rect x="58" y="106" width="164" height="118" rx="22" fill="#123a2f"/>
  <rect x="58" y="142" width="164" height="18" fill="#c6425a"/>
  <rect x="129" y="106" width="20" height="118" fill="#c6425a"/>
  <path d="M120 106c-16 0-28-10-28-24 0-14 10-24 24-24 19 0 32 19 34 38M158 106c16 0 28-10 28-24 0-14-10-24-24-24-19 0-32 19-34 38" fill="none" stroke="#c6425a" stroke-width="10" stroke-linecap="round"/>
  <circle cx="210" cy="206" r="10" fill="#e0b04a"/>
  <text x="300" y="165" font-size="102" font-family="Fraunces, 'Times New Roman', serif" font-weight="600" fill="#123a2f">BonBox</text>
  <text x="304" y="212" font-size="28" font-family="'Plus Jakarta Sans', 'Segoe UI', sans-serif" fill="#73593b">Budget with a gift mode.</text>
</svg>
